<svg id="Layer_1" data-name="Layer 1" xmlns="http://www.w3.org/2000/svg" viewBox="0 0 220.81 324.84"><defs><style>.cls-1{fill:#fff;}</style></defs><path class="cls-1" d="M166.71,94.61l190.8,147.23" transform="translate(-151.7 -79.43)"/><path class="cls-1" d="M159.14,107.56,349.94,254.8c6.41,4.95,16.8,1,20.52-5.38,4.53-7.75,1.05-15.56-5.38-20.53L174.28,81.65c-6.42-5-16.8-1-20.52,5.38-4.53,7.75-1.06,15.56,5.38,20.53Z" transform="translate(-151.7 -79.43)"/><path class="cls-1" d="M357.51,241.84,166.71,389.08" transform="translate(-151.7 -79.43)"/><path class="cls-1" d="M349.94,228.89,159.14,376.13c-6.4,4.94-9.84,12.9-5.38,20.52C157.44,403,167.83,407,174.28,402L365.08,254.8c6.4-4.94,9.84-12.9,5.38-20.53-3.69-6.3-14.07-10.36-20.52-5.38Z" transform="translate(-151.7 -79.43)"/></svg>